{
  "source": "C:\\Users\\Peter\\Desktop\\stuff\\MIUN\\quantitative_research\\video_compression\\videos\\UVG\\YachtRide_1920x1080_120fps_420_8bit_YUV.y4m",
  "output": "C:\\Users\\Peter\\Desktop\\stuff\\MIUN\\quantitative_research\\video_compression\\compressed_videos\\UVG\\h264\\12\\YachtRide_1920x1080_120fps_420_8bit_YUV_h264.mp4",
  "codec": "h264",
  "ok": "[yuv4mpegpipe @ 000002483e655f80] Stream #0: not enough frames to estimate rate; consider increasing probesize\nInput #0, yuv4mpegpipe, from 'C:\\Users\\Peter\\Desktop\\stuff\\MIUN\\quantitative_research\\video_compression\\videos\\UVG\\YachtRide_1920x1080_120fps_420_8bit_YUV.y4m':\n  Duration: 00:00:05.00, start: 0.000000, bitrate: 2985989 kb/s\n  Stream #0:0: Video: rawvideo (I420 / 0x30323449), yuv420p(progressive), 1920x1080, 120 fps, 120 tbr, 120 tbn\n[out#0/mp4 @ 000002483e659e40] Codec AVOption b:a (set bitrate (in bits/s)) has not been used for any stream. The most likely reason is either wrong type (e.g. a video option with no video streams) or that it is a private option of some decoder which was not actually used for any stream.\nStream mapping:\n  Stream #0:0 -> #0:0 (rawvideo (native) -> h264 (libx264))\nPress [q] to stop, [?] for help\n[libx264 @ 000002483e65cec0] using cpu capabilities: MMX2 SSE2Fast SSSE3 SSE4.2 AVX FMA3 BMI2 AVX2\n[libx264 @ 000002483e65cec0] profile High, level 5.1, 4:2:0, 8-bit\n[libx264 @ 000002483e65cec0] 264 - core 165 r3222 b35605a - H.264/MPEG-4 AVC codec - Copyleft 2003-2025 - http://www.videolan.org/x264.html - options: cabac=1 ref=5 deblock=1:0:0 analyse=0x3:0x113 me=hex subme=8 psy=1 psy_rd=1.00:0.00 mixed_ref=1 me_range=16 chroma_me=1 trellis=2 8x8dct=1 cqm=0 deadzone=21,11 fast_pskip=1 chroma_qp_offset=-2 threads=18 lookahead_threads=3 sliced_threads=0 nr=0 decimate=1 interlaced=0 bluray_compat=0 constrained_intra=0 bframes=3 b_pyramid=2 b_adapt=1 b_bias=0 direct=3 weightb=1 open_gop=0 weightp=2 keyint=250 keyint_min=25 scenecut=40 intra_refresh=0 rc_lookahead=50 rc=cbr mbtree=1 bitrate=12000 ratetol=1.0 qcomp=0.60 qpmin=0 qpmax=69 qpstep=4 vbv_maxrate=12000 vbv_bufsize=12000 nal_hrd=none filler=0 ip_ratio=1.40 aq=1:1.00\nOutput #0, mp4, to 'C:\\Users\\Peter\\Desktop\\stuff\\MIUN\\quantitative_research\\video_compression\\compressed_videos\\UVG\\h264\\12\\YachtRide_1920x1080_120fps_420_8bit_YUV_h264.mp4':\n  Metadata:\n    encoder         : Lavf62.3.100\n  Stream #0:0: Video: h264 (avc1 / 0x31637661), yuv420p(tv, progressive), 1920x1080, q=2-31, 12000 kb/s, 120 fps, 15360 tbn\n    Metadata:\n      encoder         : Lavc62.11.100 libx264\n    Side data:\n      cpb: bitrate max/min/avg: 12000000/0/12000000 buffer size: 12000000 vbv_delay: N/A\nframe=    0 fps=0.0 q=0.0 size=       0KiB time=N/A bitrate=N/A speed=N/A elapsed=0:00:00.51    \nframe=    0 fps=0.0 q=0.0 size=       0KiB time=N/A bitrate=N/A speed=N/A elapsed=0:00:01.10    \nframe=   13 fps=7.2 q=36.0 size=       0KiB time=00:00:00.09 bitrate=   4.2kbits/s speed=0.0509x elapsed=0:00:01.80    \nframe=   33 fps= 13 q=35.0 size=     256KiB time=00:00:00.22 bitrate=9322.4kbits/s speed=0.0904x elapsed=0:00:02.48    \nframe=   49 fps= 16 q=35.0 size=     512KiB time=00:00:00.39 bitrate=10709.8kbits/s speed=0.127x elapsed=0:00:03.09    \nframe=   69 fps= 19 q=35.0 size=     768KiB time=00:00:00.55 bitrate=11269.0kbits/s speed=0.152x elapsed=0:00:03.66    \nframe=   89 fps= 21 q=35.0 size=    1024KiB time=00:00:00.72 bitrate=11571.0kbits/s speed=0.171x elapsed=0:00:04.24    \nframe=  113 fps= 23 q=35.0 size=    1280KiB time=00:00:00.91 bitrate=11439.4kbits/s speed=0.19x elapsed=0:00:04.82    \nframe=  133 fps= 25 q=35.0 size=    1536KiB time=00:00:01.05 bitrate=11889.7kbits/s speed=0.195x elapsed=0:00:05.41    \nframe=  149 fps= 25 q=35.0 size=    1536KiB time=00:00:01.19 bitrate=10559.4kbits/s speed=0.198x elapsed=0:00:06.01    \nframe=  165 fps= 25 q=35.0 size=    1792KiB time=00:00:01.35 bitrate=10807.7kbits/s speed=0.203x elapsed=0:00:06.67    \nframe=  186 fps= 26 q=36.0 size=    2048KiB time=00:00:01.49 bitrate=11247.6kbits/s speed=0.206x elapsed=0:00:07.24    \nframe=  205 fps= 26 q=36.0 size=    2304KiB time=00:00:01.63 bitrate=11556.0kbits/s speed=0.208x elapsed=0:00:07.85    \nframe=  217 fps= 26 q=36.0 size=    2560KiB time=00:00:01.79 bitrate=11705.2kbits/s speed=0.212x elapsed=0:00:08.45    \nframe=  232 fps= 26 q=36.0 size=    2816KiB time=00:00:01.91 bitrate=12036.0kbits/s speed=0.213x elapsed=0:00:09.00    \nframe=  251 fps= 26 q=36.0 size=    3072KiB time=00:00:02.07 bitrate=12128.3kbits/s speed=0.216x elapsed=0:00:09.61    \nframe=  271 fps= 27 q=36.0 size=    3328KiB time=00:00:02.22 bitrate=12253.2kbits/s speed=0.219x elapsed=0:00:10.16    \nframe=  287 fps= 27 q=36.0 size=    3584KiB time=00:00:02.36 bitrate=12405.8kbits/s speed=0.221x elapsed=0:00:10.70    \nframe=  315 fps= 28 q=36.0 size=    3840KiB time=00:00:02.54 bitrate=12376.8kbits/s speed=0.226x elapsed=0:00:11.26    \nframe=  335 fps= 28 q=36.0 size=    4096KiB time=00:00:02.77 bitrate=12091.8kbits/s speed=0.231x elapsed=0:00:12.00    \nframe=  355 fps= 28 q=36.0 size=    4352KiB time=00:00:02.90 bitrate=12258.6kbits/s speed=0.231x elapsed=0:00:12.57    \nframe=  374 fps= 28 q=36.0 size=    4608KiB time=00:00:03.04 bitrate=12410.7kbits/s speed=0.228x elapsed=0:00:13.36    \nframe=  375 fps= 27 q=36.0 size=    4608KiB time=00:00:03.10 bitrate=12144.5kbits/s speed=0.221x elapsed=0:00:14.07    \nframe=  395 fps= 27 q=37.0 size=    4864KiB time=00:00:03.27 bitrate=12166.8kbits/s speed=0.223x elapsed=0:00:14.65    \nframe=  415 fps= 27 q=37.0 size=    5376KiB time=00:00:03.40 bitrate=12921.4kbits/s speed=0.223x elapsed=0:00:15.26    \nframe=  431 fps= 27 q=37.0 size=    5632KiB time=00:00:03.50 bitrate=13150.9kbits/s speed=0.219x elapsed=0:00:16.05    \nframe=  443 fps= 26 q=38.0 size=    5632KiB time=00:00:03.67 bitrate=12554.5kbits/s speed=0.218x elapsed=0:00:16.88    \nframe=  467 fps= 27 q=38.0 size=    5888KiB time=00:00:03.87 bitrate=12447.7kbits/s speed=0.221x elapsed=0:00:17.53    \nframe=  467 fps= 26 q=38.0 size=    5888KiB time=00:00:03.87 bitrate=12447.7kbits/s speed=0.213x elapsed=0:00:18.19    \nframe=  483 fps= 26 q=38.0 size=    6144KiB time=00:00:04.00 bitrate=12556.8kbits/s speed=0.213x elapsed=0:00:18.79    \nframe=  501 fps= 26 q=37.0 size=    6400KiB time=00:00:04.15 bitrate=12633.5kbits/s speed=0.214x elapsed=0:00:19.42    \nframe=  522 fps= 26 q=38.0 size=    6656KiB time=00:00:04.31 bitrate=12631.6kbits/s speed=0.215x elapsed=0:00:20.07    \nframe=  529 fps= 26 q=38.0 size=    6912KiB time=00:00:04.39 bitrate=12893.4kbits/s speed=0.213x elapsed=0:00:20.65    \nframe=  549 fps= 26 q=37.0 size=    7168KiB time=00:00:04.50 bitrate=13049.0kbits/s speed=0.212x elapsed=0:00:21.27    \nframe=  565 fps= 26 q=37.0 size=    7168KiB time=00:00:04.69 bitrate=12515.9kbits/s speed=0.214x elapsed=0:00:21.88    \nframe=  585 fps= 26 q=-1.0 size=    7424KiB time=00:00:04.85 bitrate=12518.2kbits/s speed=0.217x elapsed=0:00:22.40    \nframe=  593 fps= 26 q=-1.0 size=    7680KiB time=00:00:04.89 bitrate=12861.7kbits/s speed=0.213x elapsed=0:00:22.98    \n[mp4 @ 000002483e659f40] Starting second pass: moving the moov atom to the beginning of the file\n[out#0/mp4 @ 000002483e659e40] video:7851KiB audio:0KiB subtitle:0KiB other streams:0KiB global headers:0KiB muxing overhead: 0.101439%\nframe=  600 fps= 26 q=-1.0 Lsize=    7859KiB time=00:00:04.98 bitrate=12919.1kbits/s speed=0.214x elapsed=0:00:23.27    \n[libx264 @ 000002483e65cec0] frame I:3     Avg QP:30.28  size: 64635\n[libx264 @ 000002483e65cec0] frame P:151   Avg QP:33.33  size: 27818\n[libx264 @ 000002483e65cec0] frame B:446   Avg QP:36.52  size:  8171\n[libx264 @ 000002483e65cec0] consecutive B-frames:  0.8%  0.0%  0.5% 98.7%\n[libx264 @ 000002483e65cec0] mb I  I16..4: 20.4% 69.2% 10.4%\n[libx264 @ 000002483e65cec0] mb P  I16..4:  0.6%  3.5%  0.2%  P16..4: 41.5% 12.7%  6.7%  0.0%  0.0%    skip:34.8%\n[libx264 @ 000002483e65cec0] mb B  I16..4:  0.0%  0.0%  0.0%  B16..8: 43.0%  3.4%  0.6%  direct: 2.0%  skip:51.0%  L0:38.3% L1:58.2% BI: 3.5%\n[libx264 @ 000002483e65cec0] 8x8 transform intra:76.9% inter:74.5%\n[libx264 @ 000002483e65cec0] direct mvs  spatial:97.8% temporal:2.2%\n[libx264 @ 000002483e65cec0] coded y,uvDC,uvAC intra: 62.5% 33.1% 7.6% inter: 9.7% 2.8% 0.0%\n[libx264 @ 000002483e65cec0] i16 v,h,dc,p: 13% 62%  6% 19%\n[libx264 @ 000002483e65cec0] i8 v,h,dc,ddl,ddr,vr,hd,vl,hu:  4% 16%  7%  6% 12%  7% 21%  6% 21%\n[libx264 @ 000002483e65cec0] i4 v,h,dc,ddl,ddr,vr,hd,vl,hu:  2% 20%  6%  5% 10%  7% 19%  6% 25%\n[libx264 @ 000002483e65cec0] i8c dc,h,v,p: 30% 57%  8%  5%\n[libx264 @ 000002483e65cec0] Weighted P-Frames: Y:0.0% UV:0.0%\n[libx264 @ 000002483e65cec0] ref P L0: 55.9% 13.8% 18.7%  5.7%  5.9%\n[libx264 @ 000002483e65cec0] ref B L0: 90.3%  7.2%  1.9%  0.6%\n[libx264 @ 000002483e65cec0] ref B L1: 97.6%  2.4%\n[libx264 @ 000002483e65cec0] kb/s:12861.72\n",
  "seconds": 24.026944637298584,
  "probe_out": {}
}